<svg width="36" height="36" viewBox="0 0 36 36" fill="none" xmlns="http://www.w3.org/2000/svg">
<g clip-path="url(#clip0_41_218)">
<path d="M26.1562 17.1562C26.6238 17.1562 27 17.5324 27 18C27 18.4676 26.6238 18.8438 26.1562 18.8438H18.8438V26.1562C18.8438 26.6238 18.4676 27 18 27C17.5324 27 17.1562 26.6238 17.1562 26.1562V18.8438H9.84375C9.37617 18.8438 9 18.4676 9 18C9 17.5324 9.37617 17.1562 9.84375 17.1562H17.1562V9.84375C17.1562 9.37617 17.5324 9 18 9C18.4676 9 18.8438 9.37617 18.8438 9.84375V17.1562H26.1562Z" fill="#535A60"/>
</g>
<defs>
<clipPath id="clip0_41_218">
<rect width="18" height="18" fill="white" transform="translate(9 9)"/>
</clipPath>
</defs>
</svg>
