<svg width="40" height="40" viewBox="0 0 40 40" fill="none" xmlns="http://www.w3.org/2000/svg">
<g clip-path="url(#clip0_41_17)">
<path d="M20 40C31.0457 40 40 31.0457 40 20C40 8.95431 31.0457 0 20 0C8.95431 0 0 8.95431 0 20C0 31.0457 8.95431 40 20 40Z" fill="#006DFF"/>
<path d="M22.5462 23.2829V25.7678L12.7778 27.5175V30L24.986 27.8106C25.6563 27.6743 26.2618 27.3121 26.7045 26.7827C27.1472 26.2533 27.4014 25.5875 27.4258 24.893V14.9628L22.5416 15.8376L22.5462 23.2829Z" fill="#F5F9FF"/>
<path d="M15.2222 12.187C14.5533 12.3253 13.9496 12.6886 13.5087 13.2184C13.0677 13.7481 12.8151 14.4135 12.7917 15.107V25.0373L17.6759 24.1624V14.2322L27.4443 12.4802V10L15.2222 12.187Z" fill="#F5F9FF"/>
</g>
<defs>
<clipPath id="clip0_41_17">
<rect width="40" height="40" fill="white"/>
</clipPath>
</defs>
</svg>
