<svg width="48" height="48" viewBox="0 0 48 48" fill="none" xmlns="http://www.w3.org/2000/svg">
<path fill-rule="evenodd" clip-rule="evenodd" d="M31.872 30.1665L31.863 30.105C31.785 29.583 31.6965 29.1915 31.569 28.9185C31.011 27.726 26.8965 25.9995 24 25.9995C21.102 25.9995 16.9875 27.726 16.4295 28.9185C16.302 29.1915 16.2135 29.583 16.1355 30.105L16.128 30.168C14.7945 28.4685 13.9995 26.3265 13.9995 24C13.9995 18.477 18.4755 13.9995 24 13.9995C29.523 13.9995 33.999 18.477 33.999 24C33.999 26.325 33.2055 28.467 31.872 30.1665ZM24 12C17.3715 12 12 17.373 12 24C12 24.444 12.0285 24.882 12.075 25.314C12.09 25.455 12.1185 25.5945 12.1395 25.7355C12.18 26.022 12.225 26.3085 12.2865 26.589C12.3225 26.751 12.3675 26.9085 12.4095 27.0675C12.4755 27.321 12.5475 27.5715 12.63 27.8175C12.684 27.978 12.744 28.137 12.8055 28.2975C12.897 28.533 12.993 28.764 13.0965 28.9935C13.1685 29.1465 13.242 29.301 13.3185 29.451C13.434 29.6775 13.5585 29.8965 13.6875 30.114C13.7715 30.255 13.8525 30.396 13.9425 30.534C14.0895 30.759 14.2455 30.972 14.4045 31.1865C14.493 31.3035 14.577 31.4235 14.667 31.5375C14.874 31.791 15.0915 32.0325 15.318 32.268C15.3765 32.331 15.4305 32.3985 15.4905 32.4585C15.7815 32.7525 16.089 33.0285 16.407 33.291C17.2695 33.9945 18.228 34.5795 19.2645 35.025C19.467 35.1135 19.68 35.1855 19.89 35.2605C20.0535 35.322 20.214 35.388 20.3805 35.442C20.6055 35.5125 20.8395 35.5665 21.0705 35.625C21.2295 35.664 21.384 35.712 21.5445 35.7465C21.807 35.8005 22.0755 35.835 22.341 35.8725C22.479 35.8905 22.614 35.9205 22.7535 35.9355C23.163 35.976 23.5785 36 24 36C24.42 36 24.8355 35.976 25.245 35.9355C25.383 35.9205 25.5165 35.8905 25.653 35.8725C25.9215 35.835 26.1915 35.8005 26.454 35.7465C26.613 35.712 26.769 35.664 26.925 35.625C27.1575 35.5665 27.393 35.5125 27.618 35.442C27.7845 35.388 27.945 35.322 28.107 35.262C28.3185 35.1855 28.53 35.1135 28.734 35.025C30.0315 34.467 31.2045 33.6825 32.217 32.727C32.379 32.574 32.5365 32.4195 32.6895 32.2605C32.811 32.1315 32.931 31.9995 33.048 31.8645C33.1935 31.698 33.3345 31.5255 33.4695 31.35C33.579 31.209 33.687 31.0695 33.789 30.9225C33.918 30.741 34.0395 30.5535 34.158 30.3645C34.254 30.2145 34.347 30.0645 34.4355 29.9085C34.5465 29.712 34.65 29.511 34.749 29.307C34.8285 29.1495 34.9065 28.9935 34.9785 28.83C35.073 28.6185 35.154 28.398 35.235 28.179C35.295 28.017 35.3595 27.858 35.4135 27.6945C35.4885 27.4605 35.5485 27.2205 35.61 26.982C35.652 26.823 35.6985 26.667 35.733 26.5065C35.79 26.238 35.829 25.962 35.8665 25.6875C35.8875 25.548 35.9145 25.4115 35.9295 25.2705C35.9745 24.8535 36 24.429 36 24C36 17.373 30.627 12 24 12ZM24 16.9995C21.789 16.9995 19.9995 18.7905 19.9995 21C19.9995 23.208 21.789 24.999 24 24.999C26.2095 24.999 27.999 23.208 27.999 21C27.999 18.7905 26.2095 16.9995 24 16.9995Z" fill="white"/>
</svg>
