<svg width="36" height="36" viewBox="0 0 36 36" fill="none" xmlns="http://www.w3.org/2000/svg">
<g clip-path="url(#clip0_41_4)">
<path d="M21.9362 16.3142C21.9362 14.8225 21.3437 13.3919 20.2889 12.3371C19.2341 11.2823 17.8035 10.6898 16.3118 10.6898C14.8201 10.6898 13.3895 11.2823 12.3347 12.3371C11.2799 13.3919 10.6873 14.8225 10.6873 16.3142C10.6873 17.8059 11.2799 19.2365 12.3347 20.2913C13.3895 21.3461 14.8201 21.9387 16.3118 21.9387C17.8035 21.9387 19.2341 21.3461 20.2889 20.2913C21.3437 19.2365 21.9362 17.8059 21.9362 16.3142ZM20.85 22.0476C19.6056 23.0354 18.0272 23.626 16.3118 23.626C12.2727 23.626 9 20.3533 9 16.3142C9 12.2751 12.2727 9.00242 16.3118 9.00242C20.3508 9.00242 23.6236 12.2751 23.6236 16.3142C23.6236 18.0297 23.033 19.608 22.0452 20.8524L26.7522 25.5594C27.0826 25.8898 27.0826 26.4242 26.7522 26.7511C26.4217 27.078 25.8874 27.0815 25.5605 26.7511L20.85 22.0476Z" fill="#535A60"/>
</g>
<defs>
<clipPath id="clip0_41_4">
<rect width="18" height="18" fill="white" transform="translate(9 9)"/>
</clipPath>
</defs>
</svg>
