<svg width="18" height="18" viewBox="0 0 18 18" fill="none" xmlns="http://www.w3.org/2000/svg">
<path fill-rule="evenodd" clip-rule="evenodd" d="M15.3773 2.61566C13.6854 0.929766 11.4353 0.00085535 9.0378 0C4.09755 0 0.076923 4.00091 0.075204 8.91874C0.0743445 10.4909 0.487323 12.0254 1.2716 13.3777L0 18L4.75118 16.7597C6.06015 17.4706 7.53415 17.8447 9.03395 17.8452H9.0378C13.9772 17.8452 17.9983 13.8438 18 8.92601C18.0009 6.5426 17.0696 4.30199 15.3773 2.61609V2.61566ZM9.0378 16.3389H9.0348C7.6983 16.3385 6.3872 15.9809 5.24325 15.3056L4.97121 15.1449L2.1517 15.8809L2.90417 13.145L2.72712 12.8645C1.98152 11.6841 1.58745 10.3198 1.58831 8.91919C1.59003 4.83188 4.93167 1.50627 9.04085 1.50627C11.0305 1.50713 12.9008 2.27908 14.3073 3.68058C15.7138 5.08165 16.4878 6.94461 16.4869 8.92516C16.4852 13.0129 13.1435 16.3385 9.0378 16.3385V16.3389ZM13.1238 10.7868C12.8999 10.6752 11.7989 10.1363 11.5935 10.0619C11.3881 9.98749 11.239 9.95032 11.0898 10.1735C10.9407 10.3968 10.5114 10.8989 10.3808 11.0473C10.2501 11.1961 10.1194 11.2145 9.89555 11.1029C9.6717 10.9912 8.95015 10.756 8.09455 9.99689C7.4289 9.40584 6.97935 8.67626 6.84875 8.45299C6.7181 8.22976 6.835 8.10915 6.9467 7.99838C7.04725 7.89831 7.1706 7.73794 7.28275 7.60791C7.39495 7.47789 7.4319 7.38469 7.50665 7.23626C7.58145 7.08742 7.54405 6.95745 7.4882 6.84579C7.4323 6.73418 6.98455 5.63717 6.7976 5.19112C6.6158 4.75661 6.43105 4.81563 6.29395 4.80836C6.1633 4.80194 6.0142 4.80066 5.86465 4.80066C5.7151 4.80066 5.4727 4.85626 5.2673 5.07951C5.0619 5.30273 4.48346 5.84203 4.48346 6.93859C4.48346 8.03515 5.2858 9.09539 5.39795 9.24422C5.5101 9.39305 6.9772 11.6439 9.22345 12.6096C9.75765 12.8392 10.1749 12.9765 10.5002 13.0792C11.0366 13.249 11.5247 13.225 11.9106 13.1677C12.3408 13.1036 13.2355 12.6284 13.422 12.1079C13.6085 11.5874 13.6085 11.1409 13.5527 11.0481C13.4968 10.9553 13.3473 10.8993 13.1234 10.7877L13.1238 10.7868Z" fill="#25D366"/>
</svg>
